<?xml version="1.0" encoding="UTF-8" standalone="no" ?>
<!DOCTYPE svg PUBLIC "-//W3C//DTD SVG 1.1//EN" "http://www.w3.org/Graphics/SVG/1.1/DTD/svg11.dtd">
<svg xmlns="http://www.w3.org/2000/svg" xmlns:xlink="http://www.w3.org/1999/xlink" version="1.1" width="1080" height="1080" viewBox="0 0 1080 1080" xml:space="preserve">
<desc>Created with Fabric.js 5.2.4</desc>
<defs>
</defs>
<g transform="matrix(1 0 0 1 540 540)" id="c6573b6c-5422-46cb-acbf-28c2299f2da3"  >
</g>
<g transform="matrix(1 0 0 1 540 540)" id="241228dc-e319-4530-9b0c-19a8e2499132"  >
<rect style="stroke: none; stroke-width: 1; stroke-dasharray: none; stroke-linecap: butt; stroke-dashoffset: 0; stroke-linejoin: miter; stroke-miterlimit: 4; fill: rgb(255,255,255); fill-rule: nonzero; opacity: 1; visibility: hidden;" vector-effect="non-scaling-stroke"  x="-540" y="-540" rx="0" ry="0" width="1080" height="1080" />
</g>
<g transform="matrix(1.78 0 0 1.78 548.74 540)"  >
<path style="stroke: none; stroke-width: 1; stroke-dasharray: none; stroke-linecap: butt; stroke-dashoffset: 0; stroke-linejoin: miter; stroke-miterlimit: 4; fill: rgb(63,61,86); fill-rule: nonzero; opacity: 1;" vector-effect="non-scaling-stroke"  transform=" translate(-172.01, -321.79)" d="M 251.74443 416.41995 L 92.28741 416.47511 C 84.27667 416.47787999999997 77.10092 412.33826999999997 73.09315 405.40216 C 71.08901999999999 401.93361 70.08672999999999 398.12879 70.08541 394.32311999999996 C 70.08408999999999 390.51793999999995 71.08422999999999 386.71192999999994 73.08547999999999 383.24249 L 152.76333999999997 238.19343999999998 C 156.76679999999996 231.25406999999998 163.93967999999998 227.10997999999998 171.95041999999998 227.10720999999998 C 179.96115999999998 227.10443999999998 187.13690999999997 231.24355999999997 191.14516999999998 238.18015999999997 L 270.93359999999996 383.19211999999993 C 272.93235999999996 386.65138999999994 273.93220999999994 390.4518299999999 273.93253999999996 394.2550499999999 C 273.93238999999994 398.05826999999994 272.93272999999994 401.86378999999994 270.931 405.33372999999995 C 266.92803 412.27261999999996 259.75514999999996 416.41718999999995 251.74439999999998 416.41995999999995 L 251.74442 416.41995999999995 Z M 72.0898 394.32047 C 72.08954 397.78434 89.6851 390.32024 91.50797 393.47537 C 95.1542 399.78563 84.99863 414.47762 92.28671 414.4751 C 92.28671 414.4751 265.55687 410.6471 269.19873 404.33432 C 271.01942 401.17793 271.92935 397.71521 271.92815 394.25329999999997 C 271.92695000000003 390.7913899999999 271.01462000000004 387.32978999999995 269.19127000000003 384.17465999999996 L 189.40282000000002 239.16269999999997 C 185.76685000000003 232.87049999999996 179.23918000000003 229.10468999999998 171.95110000000003 229.10720999999998 C 164.66643000000002 229.10972999999998 72.09005000000002 390.85612 72.08978000000002 394.32047 L 72.08980000000003 394.32047 Z" stroke-linecap="round" />
</g>
<g transform="matrix(1.78 0 0 1.78 631.42 521.55)"  >
<circle style="stroke: none; stroke-width: 1; stroke-dasharray: none; stroke-linecap: butt; stroke-dashoffset: 0; stroke-linejoin: miter; stroke-miterlimit: 4; fill: rgb(255,133,27); fill-rule: nonzero; opacity: 1;" vector-effect="non-scaling-stroke"  cx="0" cy="0" r="73" />
</g>
<g transform="matrix(1.78 0 0 1.78 631.4 589.21)"  >
<circle style="stroke: none; stroke-width: 1; stroke-dasharray: none; stroke-linecap: butt; stroke-dashoffset: 0; stroke-linejoin: miter; stroke-miterlimit: 4; fill: rgb(255,255,255); fill-rule: nonzero; opacity: 1;" vector-effect="non-scaling-stroke"  cx="0" cy="0" r="6.70264" />
</g>
<g transform="matrix(1.78 0 0 1.78 611.54 494.62)"  >
<path style="stroke: none; stroke-width: 1; stroke-dasharray: none; stroke-linecap: butt; stroke-dashoffset: 0; stroke-linejoin: miter; stroke-miterlimit: 4; fill: rgb(255,255,255); fill-rule: nonzero; opacity: 1;" vector-effect="non-scaling-stroke"  transform=" translate(-207.33, -296.31)" d="M 218.4641 266.68145 C 217.8484 270.77265 218.95157 271.62872 218.95767 289.26653 C 218.96377 306.90434999999997 222.62346 330.55226999999996 218.48619 330.5537 C 214.34892 330.55513 212.83571999999998 281.75094 198.46938 277.43152 C 181.5785 272.35305999999997 220.45723 253.43742999999998 218.46409 266.68145 Z" stroke-linecap="round" />
</g>
<g transform="matrix(1.78 0 0 1.78 408.99 523.56)"  >
<path style="stroke: none; stroke-width: 1; stroke-dasharray: none; stroke-linecap: butt; stroke-dashoffset: 0; stroke-linejoin: miter; stroke-miterlimit: 4; fill: rgb(63,61,86); fill-rule: nonzero; opacity: 1;" vector-effect="non-scaling-stroke"  transform=" translate(-93.48, -312.56)" d="M 120.50313 348.70219 L 113.90781 362.63746 C 121.88109 356.92001 134.33496 351.99147999999997 144.24541 349.35179 C 135.01138 344.89142 123.71227999999999 337.6999 116.96190999999999 330.57984999999996 L 120.75531 345.30418999999995 C 76.28137999999998 336.24568999999997 44.34393 302.12757999999997 44.33041 263.04495 L 42.72393 262.49224999999996 C 42.73805 303.31505999999996 74.23364000000001 339.45345999999995 120.50313 348.70219999999995 Z" stroke-linecap="round" />
</g>
</svg>